<?xml version="1.0" encoding="UTF-8"?>
<svg width="132px" height="39px" viewBox="0 0 132 39" version="1.1" xmlns="http://www.w3.org/2000/svg" xmlns:xlink="http://www.w3.org/1999/xlink">
    <title>Group 9 Copy</title>
    <defs>
        <polygon id="path-1" points="6.35944707e-05 -8.81072992e-13 132.000064 -8.81072992e-13 132.000064 38.9675115 6.35944707e-05 38.9675115"></polygon>
    </defs>
    <g id="HP" stroke="none" stroke-width="1" fill="none" fill-rule="evenodd">
        <g id="Group-9-Copy">
            <mask id="mask-2" fill="white">
                <use xlink:href="#path-1"></use>
            </mask>
            <g id="Clip-2"></g>
            <path d="M48.9009677,30.6111982 L55.5624885,30.6111982 L55.5624885,10.4867281 L48.9009677,10.4867281 L48.9009677,30.6111982 Z M52.198341,0 C49.7499539,0 48.5575576,1.97142857 48.5575576,3.98419355 C48.5575576,5.9524424 49.7499539,7.9683871 52.198341,7.9683871 C54.6721659,7.9683871 55.8836406,5.9524424 55.8836406,3.98419355 C55.8836406,1.97142857 54.6721659,0 52.198341,0 L52.198341,0 Z M58.5164516,30.6111982 L65.1557143,30.6111982 L65.1557143,0.206682028 L58.5164516,0.206682028 L58.5164516,30.6111982 Z M75.8491244,17.882765 C74.4977419,17.583871 74.0176037,17.3104147 74.0176037,16.6903687 C74.0176037,16.2102304 74.313318,15.8223041 75.6201843,15.8223041 C76.739447,15.8223041 78.1130876,16.3247005 79.143318,16.7380645 L80.4501843,11.6091705 C79.143318,10.9000922 77.8618894,10.2800461 74.2465438,10.2800461 C69.9411982,10.2800461 67.8807373,13.6473733 67.8807373,16.9415668 C67.8807373,20.0576959 69.184424,22.1849309 72.1383871,23.0084793 C73.6042396,23.4218433 74.1066359,23.9496774 74.1066359,24.5665438 C74.1066359,25.1834101 73.6042396,25.5268203 72.7584332,25.5268203 C71.4515668,25.5268203 70.0334101,25.024424 68.7742396,24.2676498 L67.1239631,28.5284793 C68.6375115,29.8321659 70.4435945,31.1135945 73.4198157,31.1135945 C78.6631797,31.1135945 81.2514747,27.9306912 81.2514747,24.2453917 C81.2514747,21.4058986 79.46447,18.6141014 75.8491244,17.882765 L75.8491244,17.882765 Z M91.1404147,10.4867281 L91.1404147,4.69327189 L84.478894,4.69327189 L84.478894,10.4867281 L82.8317972,10.4867281 L82.8317972,16.7825806 L84.478894,16.7825806 L84.478894,30.6111982 L91.1404147,30.6111982 L91.1404147,16.7825806 L93.4775115,16.7825806 L93.4775115,10.4867281 L91.1404147,10.4867281 Z" id="Fill-1" fill="#FFFFFF" mask="url(#mask-2)"></path>
            <path d="M122.069553,24.3598935 L122.047295,24.3598935 C120.629139,24.3598935 119.894623,22.5506309 119.894623,20.7445479 C119.894623,18.9575433 120.629139,17.1482806 122.047295,17.1482806 L122.069553,17.1482806 C123.49089,17.1482806 124.222226,18.9575433 124.222226,20.7445479 C124.222226,22.5506309 123.49089,24.3598935 122.069553,24.3598935 M124.085498,10.1878659 C123.239692,10.1878659 122.597388,10.3722899 122.047295,10.6711839 C121.109277,11.1735802 120.536927,12.0448244 120.056788,12.9128889 L120.056788,10.4867599 L113.417526,10.4867599 L113.417526,38.9675433 L120.056788,38.9675433 L120.056788,28.7097553 C120.444715,29.4188336 120.924853,30.2900779 122.047295,30.7479581 C122.575129,30.9768982 123.214254,31.1136263 124.085498,31.1136263 C128.365406,31.1136263 130.518079,25.8957 130.518079,20.674594 C130.518079,15.4089719 128.365406,10.1878659 124.085498,10.1878659" id="Fill-5" fill="#FFFFFF" mask="url(#mask-2)"></path>
            <path d="M101.465009,17.882765 C101.465009,17.3899078 101.579479,16.7698618 101.865654,16.2770046 C102.151829,15.7809677 102.609709,15.4089401 103.296529,15.4089401 C104.647912,15.4311982 105.12805,16.8048387 105.12805,17.882765 L101.465009,17.882765 Z M111.357129,21.7270507 L111.357129,20.8589862 C111.357129,15.4089401 108.953258,10.3277419 103.296529,10.1878341 L103.067589,10.1878341 C97.620723,10.1878341 94.8957,15.5011521 94.8957,20.7445161 C94.8957,26.0101382 97.620723,31.2757604 103.023073,31.2757604 L103.296529,31.2757604 C108.196483,31.1612903 110.256944,28.0928571 111.2204,24.932212 C111.287175,24.6110599 111.334871,24.2676498 111.334871,23.9242396 L105.12805,23.9242396 C104.991322,24.8654378 104.695608,25.9401843 103.344225,25.9401843 C103.321967,25.9401843 103.321967,25.9179263 103.296529,25.9179263 C102.037359,25.8956682 101.375976,24.7032719 101.375976,21.7270507 L111.357129,21.7270507 Z" id="Fill-6" fill="#FFFFFF" mask="url(#mask-2)"></path>
            <path d="M36.8371286,24.1086954 L36.8148705,24.1086954 C35.256806,24.1086954 34.5922438,22.2326585 34.5922438,20.3089258 C34.5922438,18.362935 35.3013221,16.4837184 36.8148705,16.4837184 L36.8371286,16.4837184 C38.3029811,16.4837184 39.0565756,18.3851931 39.0565756,20.3089258 C39.0565756,22.2326585 38.3029811,24.1086954 36.8371286,24.1086954 L36.8371286,24.1086954 Z M39.1933037,10.4867599 L39.1933037,12.6616908 C38.7131654,11.6537184 38.0263452,10.8746862 36.8371286,10.509018 C36.3569903,10.3500318 35.8068982,10.2800779 35.164594,10.2800779 C30.7002622,10.2800779 28.5030733,15.453488 28.5030733,20.674594 C28.5030733,25.8480041 30.7002622,31.0214143 35.164594,31.0214143 C35.8291562,31.0214143 36.3569903,30.932382 36.8371286,30.7479581 C38.1885111,30.2678198 38.8276355,29.1676355 39.1933037,28.321829 L39.1933037,30.61123 L45.7435341,30.61123 L45.7435341,10.4867599 L39.1933037,10.4867599 Z" id="Fill-7" fill="#FFFFFF" mask="url(#mask-2)"></path>
            <path d="M9.86738157,30.6104986 L16.5295382,30.6104986 L16.5295382,19.049024 C16.5295382,17.9272175 16.7584783,16.3246369 18.2236949,16.3246369 C19.6660175,16.3246369 19.8033816,18.0187935 19.8033816,19.049024 L19.8033816,30.6104986 L26.4655382,30.6104986 L26.4655382,16.668047 C26.4655382,13.3713097 24.6798055,10.1661484 21.0167641,10.1661484 C17.9718608,10.1661484 16.9874184,11.3337429 16.0945521,12.3868673 C15.3848378,11.2650608 14.3546074,10.1661484 11.5615382,10.1661484 C9.06609124,10.1661484 7.4635106,11.4940009 6.59353825,12.5929134 L6.59353825,10.4637705 L6.359447e-05,10.4637705 L6.359447e-05,30.6104986 L6.57064424,30.6104986 L6.57064424,19.049024 C6.57064424,17.8585355 6.82247834,16.3246369 8.2190129,16.3246369 C9.68422949,16.3246369 9.86738157,17.8585355 9.86738157,19.049024 L9.86738157,30.6104986 Z" id="Fill-8" fill="#E20714" mask="url(#mask-2)"></path>
        </g>
    </g>
</svg>